<?xml version="1.0" standalone="no"?>
<!DOCTYPE svg PUBLIC "-//W3C//DTD SVG 20010904//EN"
 "http://www.w3.org/TR/2001/REC-SVG-20010904/DTD/svg10.dtd">
<svg version="1.0" xmlns="http://www.w3.org/2000/svg"
 width="225.000000pt" height="225.000000pt" viewBox="0 0 225.000000 225.000000"
 preserveAspectRatio="xMidYMid meet">
<metadata>
Created by potrace 1.11, written by Peter Selinger 2001-2013
</metadata>
<g transform="translate(0.000000,225.000000) scale(0.100000,-0.100000)"
fill="#000000" stroke="none">
<path d="M928 2195 c-51 -16 -72 -35 -39 -35 10 0 21 5 23 11 2 6 14 5 33 -5
17 -9 25 -16 20 -16 -7 0 -9 -22 -5 -60 3 -33 2 -60 -2 -60 -3 0 -6 -9 -5 -20
1 -11 5 -20 9 -20 4 0 5 -10 3 -21 -4 -19 19 -79 30 -79 2 0 15 4 29 10 22 8
24 13 19 46 l-6 36 152 -7 151 -8 0 49 c0 27 -4 54 -8 61 -4 7 -64 16 -147 23
-77 6 -143 14 -147 16 -7 5 -2 43 7 52 10 11 111 13 167 4 32 -5 55 -5 52 -1
-19 31 -260 48 -336 24z"/>
<path d="M1160 2140 c10 -18 40 -29 40 -14 0 10 -28 34 -40 34 -8 0 -8 -6 0
-20z"/>
<path d="M848 2113 c-10 -2 -18 -8 -18 -13 0 -5 6 -7 13 -5 9 4 12 -11 12 -55
0 -34 -4 -59 -10 -59 -5 1 -9 6 -7 13 3 8 0 8 -8 -1 -17 -16 -5 -30 30 -35 35
-5 55 13 63 56 5 32 -9 96 -23 96 -4 0 -14 2 -22 4 -7 2 -21 2 -30 -1z m39
-75 c-3 -8 -6 -5 -6 6 -1 11 2 17 5 13 3 -3 4 -12 1 -19z"/>
<path d="M806 2064 c-8 -22 -8 -52 2 -57 4 -3 8 13 9 34 1 42 -1 48 -11 23z"/>
<path d="M1178 1933 c7 -3 16 -2 19 1 4 3 -2 6 -13 5 -11 0 -14 -3 -6 -6z"/>
<path d="M1025 1870 c-74 -5 -77 -6 -42 -14 28 -6 35 -11 25 -17 -7 -5 -9 -9
-4 -9 5 0 3 -7 -4 -15 -7 -8 -10 -22 -6 -30 5 -14 4 -14 -16 0 -13 8 -29 15
-38 15 -9 -1 -4 -7 12 -15 40 -22 68 -90 67 -161 l-2 -59 -8 74 c-5 41 -14 78
-21 83 -7 4 -9 8 -5 8 4 0 -1 9 -12 21 -11 12 -24 18 -30 14 -6 -3 -11 -1 -11
5 0 6 -5 8 -11 4 -6 -3 -33 -6 -60 -5 -36 0 -55 -5 -76 -22 -15 -13 -50 -31
-77 -41 -61 -23 -81 -63 -70 -140 4 -28 9 -42 11 -31 10 58 38 124 55 128 13
4 18 -1 18 -17 0 -12 -5 -27 -12 -34 -8 -8 -8 -12 -1 -12 21 0 23 -33 7 -89
-9 -31 -18 -67 -20 -81 -11 -62 -25 -89 -45 -85 -28 6 -39 14 -40 33 -1 27
-28 -40 -29 -71 0 -16 -9 -40 -20 -54 -22 -29 -27 -92 -8 -111 13 -13 57 -16
74 -4 6 4 16 16 23 27 11 18 12 16 7 -14 -3 -18 -6 -49 -6 -67 l0 -34 -60 0
c-33 0 -60 -4 -60 -10 0 -6 26 -10 58 -10 l57 0 -8 -111 c-6 -74 -5 -120 2
-141 6 -17 9 -34 6 -38 -3 -5 -28 -7 -55 -6 -39 1 -47 -1 -37 -10 6 -7 53 -15
102 -19 l90 -7 -33 21 c-46 29 -54 60 -50 188 l3 113 45 1 c25 1 54 0 66 0 13
-1 21 4 21 14 0 12 -13 15 -64 15 l-63 0 0 79 c0 45 5 83 10 86 8 5 7 11 -1
21 -11 13 -6 18 14 15 4 -1 10 6 13 14 7 17 59 21 69 5 9 -15 25 -12 25 4 0 8
-20 22 -45 32 -48 18 -57 37 -25 54 16 9 20 8 20 -5 0 -24 15 -17 28 13 9 21
11 22 8 5 -5 -26 0 -29 18 -10 16 16 40 86 32 94 -3 4 -6 -1 -6 -10 0 -9 -4
-17 -10 -17 -5 0 -10 -12 -11 -27 l-1 -28 -8 25 c-4 14 -8 19 -9 11 -1 -8 -3
-12 -6 -9 -9 9 7 68 17 62 6 -4 8 2 4 14 -6 17 -3 19 14 15 17 -4 18 -8 8 -14
-11 -7 -10 -9 1 -9 8 0 39 -9 70 -21 45 -16 59 -27 72 -54 9 -19 11 -31 5 -28
-6 4 -6 0 1 -9 16 -19 7 -28 -28 -28 -22 0 -32 -8 -45 -31 -13 -26 -13 -33 -3
-40 7 -4 16 -6 20 -3 4 2 13 -4 20 -13 12 -15 12 -16 -3 -10 -10 3 -18 2 -18
-2 0 -5 -7 -11 -14 -14 -11 -4 -13 -1 -10 11 4 14 3 13 -6 -2 -9 -14 -9 -24
-1 -43 6 -13 9 -29 6 -34 -4 -5 16 -9 45 -9 47 0 51 -2 45 -20 -10 -31 2 -24
28 18 13 20 25 55 26 77 2 49 14 63 37 44 11 -9 15 -23 11 -50 -5 -39 5 -70
17 -50 4 6 1 11 -6 11 -7 0 1 13 18 28 16 16 29 33 27 38 -2 5 10 9 27 10 27
1 115 66 104 77 -2 2 3 20 11 40 17 41 20 72 4 45 -8 -15 -13 -16 -29 -6 -10
7 -17 15 -14 19 2 4 -4 5 -15 2 -10 -3 -22 0 -25 6 -5 7 3 11 21 11 l28 0 -3
106 c-3 88 -6 108 -23 125 -22 22 -25 47 -6 54 18 8 19 61 0 77 -14 11 -15 9
-11 -19 2 -18 1 -30 -4 -27 -4 3 -5 -17 -2 -43 10 -90 14 -238 7 -249 -5 -7
-21 -14 -37 -15 -27 -4 -30 -1 -40 41 -7 25 -19 57 -29 70 -9 13 -17 32 -17
42 0 11 -5 15 -15 12 -10 -4 -15 0 -15 13 0 33 21 137 31 149 5 6 2 21 -6 37
l-14 28 49 -4 c35 -2 51 1 55 11 8 22 6 24 -16 17 -15 -5 -19 -4 -15 4 5 7 -1
10 -16 9 -13 -1 -59 -4 -103 -8z m-157 -172 c7 -7 12 -20 12 -30 0 -10 4 -18
9 -18 11 0 9 -109 -2 -126 -10 -18 -45 -23 -51 -9 -8 22 5 55 22 55 13 0 12 3
-4 15 -18 13 -18 14 6 8 l25 -5 -23 17 c-24 18 -27 62 -4 58 6 -2 12 2 12 8 0
6 -9 9 -20 6 -22 -6 -28 8 -7 17 6 4 2 4 -10 2 -13 -2 -23 0 -23 5 0 13 44 11
58 -3z m-233 -420 c-13 -47 -27 -67 -47 -68 -10 0 -10 22 -2 72 5 30 11 38 33
41 14 2 27 5 28 6 0 0 -5 -22 -12 -51z m376 -11 c-10 -9 -11 -8 -5 6 3 10 9
15 12 12 3 -3 0 -11 -7 -18z m6 -109 c-3 -8 -6 -5 -6 6 -1 11 2 17 5 13 3 -3
4 -12 1 -19z"/>
<path d="M1180 1806 c0 -19 5 -38 12 -42 8 -5 9 0 6 14 -4 12 -2 25 3 28 15 9
10 34 -6 34 -10 0 -15 -10 -15 -34z"/>
<path d="M870 1790 c-8 -5 -10 -10 -5 -10 6 0 17 5 25 10 8 5 11 10 5 10 -5 0
-17 -5 -25 -10z"/>
<path d="M1226 1711 c-8 -12 3 -41 15 -41 5 0 9 11 9 25 0 25 -14 34 -24 16z"/>
<path d="M1408 1658 c4 -70 -16 -134 -52 -166 l-24 -20 25 -69 c16 -44 26 -93
27 -139 2 -39 6 -76 10 -82 9 -16 89 -15 104 0 9 9 12 7 12 -9 0 -11 3 -35 6
-52 l7 -31 -67 0 c-37 0 -66 -4 -66 -10 0 -5 17 -10 38 -10 58 0 82 -10 83
-34 0 -11 7 -39 14 -61 l13 -40 -4 45 c-3 25 -7 55 -10 68 -3 15 0 22 11 22 8
0 15 4 15 8 0 5 8 9 18 9 45 -1 72 4 72 11 0 5 -24 5 -52 1 -29 -3 -55 -5 -56
-3 -2 1 -7 39 -11 84 -6 69 -4 86 11 111 16 26 28 34 50 30 4 0 5 6 2 14 -8
19 -10 19 -44 -5 -35 -25 -37 -23 -69 86 -12 39 -30 83 -42 98 -11 14 -15 26
-9 26 7 0 9 8 5 19 -5 16 -1 18 27 15 18 -1 27 0 21 3 -20 7 -15 23 5 17 16
-5 16 -5 0 6 -18 11 -25 55 -10 63 4 2 1 2 -7 0 -8 -2 -11 2 -8 11 4 10 0 12
-14 9 -14 -4 -18 -1 -14 10 4 8 0 17 -7 19 -10 4 -12 -8 -10 -54z"/>
<path d="M1490 1660 c0 -5 5 -10 11 -10 5 0 7 5 4 10 -3 6 -8 10 -11 10 -2 0
-4 -4 -4 -10z"/>
<path d="M622 1458 c-7 -28 -11 -53 -8 -55 2 -2 9 19 16 47 7 28 10 53 8 55
-3 3 -10 -18 -16 -47z"/>
<path d="M1231 1261 c-12 -16 -21 -33 -21 -38 0 -5 -9 -10 -20 -11 -11 -1 -29
-3 -39 -4 -11 -1 -17 -6 -15 -10 3 -4 -2 -8 -11 -8 -12 0 -15 -5 -11 -16 3 -9
6 -18 6 -20 0 -2 6 -4 14 -4 8 0 21 -8 28 -18 24 -34 45 -33 73 3 19 26 25 44
23 72 -2 21 -7 41 -13 45 -6 4 -2 13 10 22 11 9 15 16 8 16 -6 0 -21 -13 -32
-29z"/>
<path d="M705 1189 c-10 -15 3 -25 16 -12 7 7 7 13 1 17 -6 3 -14 1 -17 -5z"/>
<path d="M1301 1184 c0 -11 3 -14 6 -6 3 7 2 16 -1 19 -3 4 -6 -2 -5 -13z"/>
<path d="M760 1180 c0 -5 5 -10 10 -10 6 0 10 5 10 10 0 6 -4 10 -10 10 -5 0
-10 -4 -10 -10z"/>
<path d="M1030 1112 c-14 -2 -29 -8 -34 -13 -6 -5 -16 -3 -25 4 -8 6 -12 7 -8
1 3 -6 -2 -38 -12 -72 -10 -33 -16 -63 -13 -66 2 -3 -3 -8 -12 -12 -9 -3 -13
-10 -10 -15 3 -5 10 -7 15 -4 5 3 6 -1 3 -10 -4 -9 2 -25 12 -36 16 -17 16
-22 4 -29 -13 -8 -13 -10 -1 -10 12 0 12 -3 3 -12 -32 -32 2 -108 50 -108 10
0 18 -4 18 -9 0 -25 -44 -146 -79 -217 -34 -69 -45 -82 -85 -103 -49 -25 -79
-72 -92 -144 -5 -32 -3 -42 17 -63 26 -28 60 -31 81 -6 9 9 30 44 46 77 17 33
31 54 32 47 0 -10 4 -10 20 0 25 16 33 35 18 44 -7 5 -8 2 -3 -7 5 -8 5 -11 0
-7 -4 4 -15 3 -24 -3 -9 -7 -1 3 18 21 30 29 39 32 77 27 41 -4 44 -3 44 19 0
19 -6 24 -27 25 -19 1 -22 3 -10 6 10 3 29 2 42 -1 22 -6 23 -9 14 -35 -13
-36 2 -63 61 -110 50 -40 92 -105 88 -134 -3 -19 -10 -22 -59 -25 l-56 -3 -54
65 c-70 84 -84 85 -84 5 1 -46 -3 -63 -14 -67 -9 -3 -74 4 -146 16 -71 12
-136 22 -142 22 -25 0 -13 -29 15 -34 120 -26 283 -46 365 -46 99 0 187 15
187 31 0 5 31 9 70 9 96 0 218 19 224 36 4 10 -10 13 -66 11 l-71 -2 -33 45
c-18 25 -33 48 -33 51 -2 11 -69 79 -79 79 -16 0 -21 25 -8 41 6 9 21 21 34
28 27 14 30 57 5 64 -15 4 -14 5 3 6 17 1 54 53 54 77 0 12 -116 -8 -140 -24
-31 -20 -60 -25 -60 -11 0 5 5 7 11 3 7 -4 10 -1 7 6 -2 8 -9 15 -15 17 -15 5
-25 -27 -13 -42 7 -9 5 -16 -7 -26 -15 -11 -16 -11 -6 0 9 11 8 19 -3 37 -14
20 -22 22 -76 19 -33 -3 -65 -9 -72 -14 -6 -6 -1 24 13 65 22 68 26 74 50 73
24 -2 24 -2 4 -6 -13 -2 -23 -11 -23 -19 0 -18 109 -20 132 -1 21 15 48 107
48 161 1 33 3 38 11 23 6 -10 8 -32 4 -50 -5 -24 -4 -28 4 -17 6 8 11 23 11
33 0 9 5 17 10 17 13 0 13 -19 -1 -77 -15 -60 -52 -150 -46 -110 7 45 -10 40
-23 -7 -10 -37 -10 -48 3 -66 14 -20 15 -20 36 24 26 57 61 180 62 226 2 32 2
33 6 6 4 -25 -5 -77 -23 -138 -5 -16 2 -18 48 -18 75 0 92 16 111 97 9 38 16
80 15 94 0 25 -2 26 -49 21 -47 -4 -49 -3 -49 20 0 14 -3 28 -7 32 -5 4 -8 17
-9 29 -1 12 -4 34 -9 50 -6 21 -4 27 9 27 10 0 27 -10 39 -23 12 -12 31 -29
42 -37 19 -14 19 -14 5 5 -8 11 -32 38 -52 60 -29 32 -36 45 -31 67 5 28 5 28
-44 28 -50 0 -76 -12 -86 -40 -4 -11 -6 -9 -7 5 -1 26 -30 -38 -30 -67 0 -19
-1 -18 -29 4 -22 17 -29 31 -28 52 2 26 -2 31 -28 36 -16 3 -41 4 -55 2z m84
-117 c-4 -10 0 -15 11 -15 9 0 14 4 11 9 -3 4 6 6 20 3 17 -3 22 -7 14 -12 -8
-5 -2 -13 18 -25 30 -18 52 -52 52 -80 0 -11 -13 -15 -51 -15 -48 0 -51 1 -66
38 -9 20 -17 46 -18 57 -1 11 -5 28 -10 38 -5 12 -3 17 9 17 10 0 13 -6 10
-15z m-89 -165 c3 -5 1 -10 -4 -10 -6 0 -11 5 -11 10 0 6 2 10 4 10 3 0 8 -4
11 -10z m-38 -6 c-3 -3 -12 -4 -19 -1 -8 3 -5 6 6 6 11 1 17 -2 13 -5z m74
-75 l-11 -34 5 34 c3 18 6 45 6 60 l2 26 4 -26 c2 -15 -1 -42 -6 -60z m282
-66 c-7 -2 -19 -2 -25 0 -7 3 -2 5 12 5 14 0 19 -2 13 -5z m-215 -230 c-18
-22 -28 -14 -16 12 8 18 14 22 19 13 4 -7 3 -18 -3 -25z m161 33 c-2 -2 -17
-6 -34 -10 -22 -5 -26 -4 -15 4 14 9 59 15 49 6z m24 -23 c-7 -2 -19 -2 -25 0
-7 3 -2 5 12 5 14 0 19 -2 13 -5z m-52 -236 c-10 -9 -11 -8 -5 6 3 10 9 15 12
12 3 -3 0 -11 -7 -18z"/>
<path d="M1145 950 c3 -5 11 -10 16 -10 6 0 7 5 4 10 -3 6 -11 10 -16 10 -6 0
-7 -4 -4 -10z"/>
<path d="M1150 1060 c0 -5 5 -10 10 -10 6 0 10 5 10 10 0 6 -4 10 -10 10 -5 0
-10 -4 -10 -10z"/>
<path d="M1332 998 c3 -7 13 -15 24 -17 16 -3 17 -1 5 13 -16 19 -34 21 -29 4z"/>
<path d="M1366 961 c-3 -5 1 -11 9 -15 8 -3 15 -1 15 4 0 13 -18 22 -24 11z"/>
<path d="M1653 930 c0 -25 2 -35 4 -22 2 12 2 32 0 45 -2 12 -4 2 -4 -23z"/>
<path d="M716 914 c-9 -22 -8 -24 10 -24 12 0 15 -7 12 -30 -4 -29 -3 -30 34
-30 l38 0 -4 39 c-2 22 -7 44 -11 50 -10 17 -72 13 -79 -5z m24 -4 c0 -5 -5
-10 -11 -10 -5 0 -7 5 -4 10 3 6 8 10 11 10 2 0 4 -4 4 -10z"/>
<path d="M735 790 c-4 -6 -12 -7 -18 -4 -7 4 -8 3 -4 -2 14 -15 77 -14 77 2 0
16 -45 20 -55 4z"/>
<path d="M1498 793 c7 -3 16 -2 19 1 4 3 -2 6 -13 5 -11 0 -14 -3 -6 -6z"/>
<path d="M1548 793 c6 -2 18 -2 25 0 6 3 1 5 -13 5 -14 0 -19 -2 -12 -5z"/>
<path d="M912 560 c0 -19 2 -27 5 -17 2 9 2 25 0 35 -3 9 -5 1 -5 -18z"/>
</g>
</svg>
